<?xml version="1.0" encoding="utf-8"?>
<!-- Generator: Adobe Illustrator 22.0.0, SVG Export Plug-In . SVG Version: 6.00 Build 0)  -->
<svg version="1.1" id="Слой_1" xmlns="http://www.w3.org/2000/svg" xmlns:xlink="http://www.w3.org/1999/xlink" x="0px" y="0px"
	 viewBox="0 0 100 100" style="enable-background:new 0 0 100 100;" xml:space="preserve">
<style type="text/css">
	.st0{fill:url(#SVGID_1_);}
	.st1{fill:url(#SVGID_2_);}
	.st2{fill:#BAD7E7;}
	.st3{fill:url(#SVGID_3_);}
	.st4{fill:#FEF7D3;}
	.st5{fill:url(#SVGID_4_);}
	.st6{fill:#A3C0CF;}
	.st7{fill:#9EC2D1;}
</style>
<g>
	<g>
		<linearGradient id="SVGID_1_" gradientUnits="userSpaceOnUse" x1="37.4043" y1="31.9522" x2="74.003" y2="31.9522">
			<stop  offset="0" style="stop-color:#1570A3"/>
			<stop  offset="1" style="stop-color:#B9D7E4"/>
		</linearGradient>
		<path class="st0" d="M74,16.3v25.8c0,3.1-2.5,5.6-5.6,5.6c-3.1,0-5.6-2.5-5.6-5.6l-25.5-0.3V16.3H74z"/>
		<linearGradient id="SVGID_2_" gradientUnits="userSpaceOnUse" x1="28.3471" y1="26.2727" x2="51.5438" y2="95.2095">
			<stop  offset="0" style="stop-color:#DFF5FB"/>
			<stop  offset="0.2502" style="stop-color:#D3EEF6"/>
			<stop  offset="1" style="stop-color:#AED8E6"/>
		</linearGradient>
		<path class="st1" d="M51.8,21.6H20.7v0c-3,0-5.5,2.5-5.5,5.5v2.1v4.8V79h36.6V34.1h5.9V21.6H51.8z"/>
		<path class="st2" d="M57.3,21.6c3.1,0,5.6,2.5,5.6,5.6v14.9c0,2.9,2.2,5.3,5,5.5v0h-5v0H51.8V27.2C51.8,24.1,54.3,21.6,57.3,21.6z
			"/>
	</g>
	<g>
		<linearGradient id="SVGID_3_" gradientUnits="userSpaceOnUse" x1="56.263" y1="59.8934" x2="54.9522" y2="80.5383">
			<stop  offset="0" style="stop-color:#F28B6C"/>
			<stop  offset="1" style="stop-color:#C7586B"/>
		</linearGradient>
		<path class="st3" d="M66.2,84.7H45.2c-1.2,0-2.2-1-2.2-2.2V54.9c0-1.2,1-2.2,2.2-2.2h21.1c1.2,0,2.2,1,2.2,2.2v27.6
			C68.4,83.7,67.5,84.7,66.2,84.7z"/>
		<rect x="44.6" y="56.5" class="st4" width="21.9" height="7.1"/>
		<g>
			<path class="st4" d="M50.2,67.9h-4.9c-0.4,0-0.7-0.3-0.7-0.7v-0.4c0-0.4,0.3-0.7,0.7-0.7h4.9c0.4,0,0.7,0.3,0.7,0.7v0.4
				C50.9,67.6,50.6,67.9,50.2,67.9z"/>
			<path class="st4" d="M58,67.9h-4.9c-0.4,0-0.7-0.3-0.7-0.7v-0.4c0-0.4,0.3-0.7,0.7-0.7H58c0.4,0,0.7,0.3,0.7,0.7v0.4
				C58.7,67.6,58.4,67.9,58,67.9z"/>
			<path class="st4" d="M65.9,67.9H61c-0.4,0-0.7-0.3-0.7-0.7v-0.4c0-0.4,0.3-0.7,0.7-0.7h4.9c0.4,0,0.7,0.3,0.7,0.7v0.4
				C66.5,67.6,66.2,67.9,65.9,67.9z"/>
		</g>
		<g>
			<path class="st4" d="M50.2,71.2h-4.9c-0.4,0-0.7-0.3-0.7-0.7v-0.4c0-0.4,0.3-0.7,0.7-0.7h4.9c0.4,0,0.7,0.3,0.7,0.7v0.4
				C50.9,70.9,50.6,71.2,50.2,71.2z"/>
			<path class="st4" d="M58,71.2h-4.9c-0.4,0-0.7-0.3-0.7-0.7v-0.4c0-0.4,0.3-0.7,0.7-0.7H58c0.4,0,0.7,0.3,0.7,0.7v0.4
				C58.7,70.9,58.4,71.2,58,71.2z"/>
			<path class="st4" d="M65.9,71.2H61c-0.4,0-0.7-0.3-0.7-0.7v-0.4c0-0.4,0.3-0.7,0.7-0.7h4.9c0.4,0,0.7,0.3,0.7,0.7v0.4
				C66.5,70.9,66.2,71.2,65.9,71.2z"/>
		</g>
		<g>
			<path class="st4" d="M50.2,74.5h-4.9c-0.4,0-0.7-0.3-0.7-0.7v-0.4c0-0.4,0.3-0.7,0.7-0.7h4.9c0.4,0,0.7,0.3,0.7,0.7v0.4
				C50.9,74.2,50.6,74.5,50.2,74.5z"/>
			<path class="st4" d="M58,74.5h-4.9c-0.4,0-0.7-0.3-0.7-0.7v-0.4c0-0.4,0.3-0.7,0.7-0.7H58c0.4,0,0.7,0.3,0.7,0.7v0.4
				C58.7,74.2,58.4,74.5,58,74.5z"/>
			<linearGradient id="SVGID_4_" gradientUnits="userSpaceOnUse" x1="70.4817" y1="93.0451" x2="58.3863" y2="65.5175">
				<stop  offset="0" style="stop-color:#DFF5FB"/>
				<stop  offset="0.2502" style="stop-color:#D3EEF6"/>
				<stop  offset="1" style="stop-color:#AED8E6"/>
			</linearGradient>
			<path class="st5" d="M65.9,81.2H61c-0.4,0-0.7-0.3-0.7-0.7v-7.1c0-0.4,0.3-0.7,0.7-0.7h4.9c0.4,0,0.7,0.3,0.7,0.7v7.1
				C66.5,80.9,66.2,81.2,65.9,81.2z"/>
		</g>
		<g>
			<path class="st4" d="M50.2,77.8h-4.9c-0.4,0-0.7-0.3-0.7-0.7v-0.4c0-0.4,0.3-0.7,0.7-0.7h4.9c0.4,0,0.7,0.3,0.7,0.7v0.4
				C50.9,77.5,50.6,77.8,50.2,77.8z"/>
			<path class="st4" d="M58,77.8h-4.9c-0.4,0-0.7-0.3-0.7-0.7v-0.4c0-0.4,0.3-0.7,0.7-0.7H58c0.4,0,0.7,0.3,0.7,0.7v0.4
				C58.7,77.5,58.4,77.8,58,77.8z"/>
		</g>
		<g>
			<path class="st4" d="M50.2,81.2h-4.9c-0.4,0-0.7-0.3-0.7-0.7v-0.4c0-0.4,0.3-0.7,0.7-0.7h4.9c0.4,0,0.7,0.3,0.7,0.7v0.4
				C50.9,80.9,50.6,81.2,50.2,81.2z"/>
			<path class="st4" d="M58,81.2h-4.9c-0.4,0-0.7-0.3-0.7-0.7v-0.4c0-0.4,0.3-0.7,0.7-0.7H58c0.4,0,0.7,0.3,0.7,0.7v0.4
				C58.7,80.9,58.4,81.2,58,81.2z"/>
		</g>
	</g>
	<path class="st6" d="M43.6,30.4H22.8c-0.6,0-1.1-0.5-1.1-1.1v0c0-0.6,0.5-1.1,1.1-1.1h20.8c0.6,0,1.1,0.5,1.1,1.1v0
		C44.6,29.9,44.2,30.4,43.6,30.4z"/>
	<rect x="19" y="33.8" class="st7" width="27.6" height="0.3"/>
	<rect x="19" y="36.8" class="st7" width="27.6" height="0.3"/>
	<rect x="19" y="39.9" class="st7" width="27.6" height="0.3"/>
	<rect x="19" y="42.9" class="st7" width="27.6" height="0.3"/>
	<rect x="19" y="46" class="st7" width="27.6" height="0.3"/>
	<rect x="19" y="49" class="st7" width="27.6" height="0.3"/>
	<rect x="19" y="52.4" class="st7" width="17.5" height="0.3"/>
	<rect x="19" y="55.7" class="st7" width="17.5" height="0.3"/>
	<rect x="19" y="59.2" class="st7" width="17.5" height="0.3"/>
	<rect x="19" y="63.2" class="st7" width="9.3" height="0.4"/>
	<rect x="19" y="67.2" class="st7" width="9.3" height="0.4"/>
	<rect x="19" y="71" class="st7" width="9.3" height="0.4"/>
</g>
</svg>
