<svg width="37" height="37" viewBox="0 0 37 37" fill="none" xmlns="http://www.w3.org/2000/svg">
<path fill-rule="evenodd" clip-rule="evenodd" d="M9.19438 26.4015C8.86971 26.7262 8.86971 27.2525 9.19438 27.5772C9.51904 27.9019 10.0454 27.9019 10.3701 27.5772L18.3865 19.5608L26.4032 27.5774C26.7278 27.902 27.2542 27.902 27.5789 27.5774C27.9036 27.2527 27.9036 26.7263 27.5789 26.4017L19.5623 18.385L27.5792 10.3682C27.9038 10.0435 27.9038 9.5171 27.5792 9.19243C27.2545 8.86776 26.7281 8.86776 26.4034 9.19243L18.3865 17.2093L10.3698 9.19261C10.0452 8.86794 9.51878 8.86794 9.19411 9.19261C8.86945 9.51727 8.86945 10.0437 9.19411 10.3683L17.2108 18.385L9.19438 26.4015Z" fill="#012b4d"/>
</svg>
