<svg width="15" height="20" viewBox="0 0 15 20" fill="none" xmlns="http://www.w3.org/2000/svg">
<path d="M13.879 1.4615H9.71284V1.06685C9.71284 0.47864 9.21523 0 8.60358 0H6.39649C5.7847 0 5.28703 0.47864 5.28703 1.06691V1.46156H1.12096C0.502872 1.46156 0 1.93525 0 2.51742V3.21509C0 3.65265 0.284014 4.02879 0.687417 4.18879C0.815224 6.60751 1.55488 18.3016 1.58817 18.827C1.60243 19.0526 1.79919 19.2287 2.03713 19.2287H12.9629C13.2008 19.2287 13.3976 19.0526 13.4118 18.827C13.4451 18.3016 14.1847 6.60751 14.3126 4.18879C14.716 4.02879 15 3.65265 15 3.21509V2.51736C15 1.93519 14.4971 1.4615 13.879 1.4615ZM6.18663 1.06691C6.18663 0.949833 6.28076 0.854606 6.39649 0.854606H8.60358C8.71924 0.854606 8.81331 0.949833 8.81331 1.06691V1.46156H6.18669V1.06691H6.18663ZM0.899464 2.51736C0.899464 2.40639 0.998805 2.3161 1.12083 2.3161H13.8789C14.0009 2.3161 14.1003 2.40633 14.1003 2.51736V3.21503C14.1003 3.32606 14.0009 3.41641 13.8789 3.41641H1.12089C0.998869 3.41641 0.899528 3.32613 0.899528 3.21503V2.51736H0.899464ZM12.5391 18.374H2.46058C2.32853 16.2835 1.72298 6.67362 1.59247 4.27101H13.4071C13.2766 6.67362 12.6711 16.2835 12.5391 18.374Z" fill="#012b4d"/>
<path d="M4.45753 6.22928C4.44455 5.99365 4.23218 5.81193 3.98492 5.82487C3.73689 5.83714 3.54624 6.03815 3.55922 6.27384L4.14922 17.007C4.16175 17.2351 4.36031 17.412 4.59799 17.412C4.6059 17.412 4.61386 17.4119 4.62183 17.4114C4.86986 17.3992 5.06051 17.1981 5.04753 16.9625L4.45753 6.22928Z" fill="#012b4d"/>
<path d="M11.0087 5.82493C10.7581 5.81132 10.5491 5.99366 10.5361 6.22935L9.94594 16.9625C9.93296 17.1982 10.1236 17.3992 10.3716 17.4115C10.3797 17.4119 10.3876 17.4121 10.3955 17.4121C10.6331 17.4121 10.8317 17.2352 10.8442 17.0071L11.4344 6.27391C11.4474 6.03822 11.2568 5.8372 11.0087 5.82493Z" fill="#012b4d"/>
</svg>
